<svg xmlns="http://www.w3.org/2000/svg" viewBox="0 0 32 32" fill="none">
  <defs>
    <linearGradient id="bg" x1="0%" y1="0%" x2="100%" y2="100%">
      <stop offset="0%" style="stop-color:#f59e0b"/>
      <stop offset="100%" style="stop-color:#ea580c"/>
    </linearGradient>
  </defs>
  <!-- Background rounded square -->
  <rect width="32" height="32" rx="8" fill="url(#bg)"/>
  <!-- Sparkles icon -->
  <g transform="translate(6, 6)" fill="white">
    <!-- Main star -->
    <path d="M10 2L11.5 7.5L17 9L11.5 10.5L10 16L8.5 10.5L3 9L8.5 7.5L10 2Z" fill="white"/>
    <!-- Small star top right -->
    <path d="M16 1L16.5 3L18.5 3.5L16.5 4L16 6L15.5 4L13.5 3.5L15.5 3L16 1Z" fill="white" opacity="0.8"/>
    <!-- Small star bottom left -->
    <path d="M4 12L4.5 14L6.5 14.5L4.5 15L4 17L3.5 15L1.5 14.5L3.5 14L4 12Z" fill="white" opacity="0.8"/>
  </g>
</svg>

